<?xml version="1.0" encoding="utf-8"?>
<!-- Generator: Adobe Illustrator 27.3.1, SVG Export Plug-In . SVG Version: 6.00 Build 0)  -->
<svg version="1.1" id="Calque_1" xmlns="http://www.w3.org/2000/svg" xmlns:xlink="http://www.w3.org/1999/xlink" x="0px" y="0px"
	 viewBox="0 0 209.7 324.6" style="enable-background:new 0 0 209.7 324.6;" xml:space="preserve">
<style type="text/css">
	.st0{fill:none;stroke:#FFFFFF;stroke-width:4;stroke-miterlimit:10;}
</style>
<path class="st0" d="M104.3,220.6L104.3,220.6c-24.5,0-44.5-20-44.5-44.5v-99c0-24.5,20-44.5,44.5-44.5h0c24.5,0,44.5,20,44.5,44.5
	v99C148.8,200.6,128.8,220.6,104.3,220.6z"/>
<path class="st0" d="M181.8,175.4v23.7c0,27.5-22.5,50-50,50h-57c-27.5,0-50-22.5-50-50v-26.6"/>
<path class="st0" d="M181.8,142.1v33.3"/>
<path class="st0" d="M24.8,172.5v-30.4"/>
<line class="st0" x1="103.3" y1="249.1" x2="103.3" y2="306.9"/>
<line class="st0" x1="24.8" y1="306.9" x2="181.8" y2="306.9"/>
</svg>
